<?xml version="1.0" encoding="UTF-8" standalone="no"?>
<!DOCTYPE svg PUBLIC "-//W3C//DTD SVG 1.1//EN" "http://www.w3.org/Graphics/SVG/1.1/DTD/svg11.dtd">
<svg version="1.1" xmlns="http://www.w3.org/2000/svg" xmlns:xlink="http://www.w3.org/1999/xlink" width="32" height="32" viewBox="0 0 600 600" preserveAspectRatio="xMidYMid meet">
<g transform="translate(0.000000,600.000000) scale(0.100000,-0.100000)" fill="#ffdd61" stroke="none">
<path d="M4215 5223 c-43 -6 -147 -43 -166 -59 -8 -8 -20 -14 -25 -14 -12 0 -123 -93 -121 -100 3 -9 -27 -38 -34 -34 -10 6 -87 -156 -98 -206 -6 -25 -11 -73 -11 -107 0 -54 -3 -64 -22 -75 -13 -7 -26 -11 -30 -10 -5 1 -8 -2 -8 -8 0 -5 -6 -10 -12 -10 -17 0 -232 -103 -236 -112 -2 -5 -12 -8 -22 -8 -10 0 -26 -7 -34 -16 -9 -8 -16 -13 -16 -10 0 4 -41 -14 -90 -39 -50 -25 -113 -54 -141 -65 l-50 -20 -9 24 c-5 14 -16 33 -24 43 -8 10 -29 36 -45 58 -17 22 -43 56 -58 75 -39 49 -216 230 -221 225 -2 -2 -16 9 -30 23 -25 26 -171 132 -220 160 -12 6 -28 12 -35 12 -8 0 -22 9 -32 20 -10 11 -22 17 -26 14 -5 -3 -9 -1 -9 4 0 5 -18 15 -40 22 -22 7 -45 19 -51 27 -6 7 -17 13 -23 13 -6 0 -28 9 -48 19 -19 11 -38 17 -42 14 -3 -3 -12 -1 -20 6 -8 6 -61 23 -117 37 -57 13 -131 31 -164 40 -35 9 -132 17 -232 21 l-171 6 -26 -28 -26 -28 0 -432 0 -431 25 -22 c22 -20 37 -22 129 -22 106 0 245 -22 256 -41 4 -5 18 -11 31 -12 13 0 26 -4 29 -7 3 -3 28 -16 55 -29 47 -23 131 -83 147 -106 4 -5 8 -7 8 -3 0 4 27 -20 61 -54 33 -33 57 -64 52 -69 -4 -4 -33 -20 -63 -35 -30 -15 -61 -34 -68 -41 -16 -16 -27 -10 -79 38 -79 73 -159 116 -280 149 -81 22 -186 25 -253 7 -92 -25 -145 -41 -150 -46 -3 -3 -25 -17 -50 -30 -63 -34 -111 -72 -104 -82 3 -5 -1 -9 -8 -9 -16 0 -62 -53 -85 -99 -10 -20 -21 -37 -25 -39 -5 -2 -8 -11 -8 -21 0 -9 -4 -21 -9 -26 -6 -6 -17 -37 -26 -70 -23 -88 -18 -231 11 -323 23 -72 102 -205 116 -196 5 3 8 1 8 -4 0 -18 86 -94 135 -120 135 -71 269 -100 384 -81 83 13 188 46 223 70 14 11 29 19 32 19 8 0 43 29 96 80 l47 45 82 -41 c44 -22 83 -43 86 -46 11 -10 -116 -128 -166 -154 -19 -9 -48 -28 -65 -40 -17 -13 -37 -24 -45 -24 -8 0 -23 -6 -34 -13 -56 -38 -211 -69 -340 -68 -97 0 -138 -9 -121 -26 14 -15 247 -7 320 11 165 40 333 133 435 241 l54 57 221 -98 c122 -53 255 -112 296 -129 41 -18 116 -50 165 -72 50 -22 98 -43 108 -46 22 -8 18 -15 -64 -110 -337 -395 -826 -607 -1396 -607 l-133 0 -2 372 c-3 324 -5 373 -18 373 -13 0 -15 -47 -15 -365 0 -421 -4 -402 92 -414 60 -8 327 9 406 25 29 6 60 11 70 11 9 -1 17 3 17 8 0 5 6 7 14 4 37 -14 487 146 516 184 3 4 27 18 55 32 68 34 150 94 240 176 19 17 36 30 38 28 2 -2 24 20 50 49 25 29 59 67 74 83 45 48 74 87 83 111 9 21 11 22 49 8 37 -13 153 -61 216 -90 16 -7 33 -11 37 -9 4 3 8 1 8 -4 0 -5 10 -13 23 -17 26 -9 21 -6 77 -33 25 -12 50 -22 57 -22 6 0 38 -14 70 -30 32 -17 74 -33 94 -36 34 -6 37 -9 43 -47 4 -22 13 -52 20 -66 8 -14 28 -56 46 -94 71 -145 278 -279 433 -280 20 0 25 -2 15 -9 -21 -14 160 1 222 19 57 15 180 81 180 95 0 4 6 8 14 8 7 0 38 28 67 61 68 77 80 95 72 102 -3 4 2 9 11 13 9 3 13 10 10 15 -3 5 -1 9 4 9 5 0 19 38 32 85 20 73 22 101 17 193 -4 88 -11 119 -35 175 -16 38 -37 78 -48 90 -10 12 -16 22 -14 22 5 0 -47 71 -67 93 -7 7 -13 11 -13 7 0 -3 -11 5 -24 19 -13 15 -28 26 -35 26 -6 0 -11 4 -11 9 0 14 -96 57 -175 77 -70 19 -184 23 -262 11 -139 -22 -295 -121 -368 -234 -15 -23 -32 -44 -39 -46 -7 -3 -39 8 -72 24 -32 16 -84 38 -114 50 -30 11 -59 24 -65 28 -5 5 -28 14 -50 21 -22 7 -49 18 -60 25 -24 15 -97 40 -107 37 -5 -1 -8 2 -8 8 0 5 -6 10 -14 10 -8 0 -16 6 -18 13 -7 17 14 127 24 127 4 0 8 -5 8 -12 0 -6 3 -8 6 -5 4 4 20 -3 35 -14 44 -31 155 -59 235 -59 76 0 158 22 233 61 49 26 161 134 161 155 0 7 6 19 13 26 7 7 21 33 32 58 16 36 20 66 20 165 0 119 0 121 -38 196 -46 93 -130 178 -214 216 -32 15 -61 27 -65 29 -5 1 -11 3 -15 4 -5 1 -12 2 -17 1 -4 -1 -14 3 -20 8 -8 6 -55 9 -117 7 -103 -4 -121 -8 -220 -60 -15 -8 -30 -11 -35 -7 -5 3 -21 41 -36 84 l-26 78 21 14 c12 8 47 26 77 40 30 14 62 30 70 35 23 15 182 87 208 95 12 3 22 11 22 16 0 5 3 8 8 7 10 -2 115 48 162 77 22 14 44 25 50 25 6 0 32 -19 58 -43 59 -54 98 -78 187 -113 63 -25 83 -28 195 -28 98 -1 136 3 175 18 66 24 117 48 132 63 7 6 28 21 48 33 19 12 32 27 29 32 -4 6 -3 8 3 5 17 -11 109 111 138 183 27 69 29 86 29 225 0 103 -3 137 -17 164 -9 19 -17 40 -17 48 0 8 -5 11 -12 7 -7 -4 -8 -3 -4 5 7 11 -13 52 -41 79 -7 7 -13 19 -13 25 0 7 -21 32 -47 57 -25 25 -42 38 -38 30 5 -8 -4 -3 -19 12 -39 38 -138 86 -214 103 -59 14 -176 18 -247 8z m265 -50 c224 -61 380 -268 380 -503 0 -190 -115 -378 -280 -458 -69 -34 -179 -62 -244 -62 -269 -1 -498 196 -537 463 -35 237 104 465 335 552 97 36 233 39 346 8z m-2636 -38 c439 -76 812 -290 1094 -627 51 -62 147 -198 154 -220 2 -5 60 17 128 50 317 151 371 177 452 218 l88 43 6 -27 c17 -79 60 -178 92 -215 8 -9 13 -19 11 -21 -2 -3 -143 -70 -312 -151 -170 -80 -316 -150 -325 -155 -9 -5 -145 -71 -302 -146 -157 -75 -355 -170 -440 -212 -164 -79 -300 -142 -306 -142 -2 0 -4 13 -4 30 0 41 -42 153 -74 194 -28 37 -31 46 -17 46 5 0 84 37 177 81 93 45 261 125 374 179 328 156 440 212 440 220 0 4 -10 10 -22 14 -31 8 -394 -163 -376 -177 9 -6 8 -7 -4 -3 -22 7 -279 -114 -271 -127 3 -6 1 -7 -5 -3 -16 10 -112 -43 -112 -63 0 -10 -20 4 -54 40 -100 106 -186 170 -290 219 -134 63 -222 84 -363 84 l-113 0 0 447 0 448 141 -5 c78 -2 183 -11 233 -19z m1425 -1217 l31 -92 -34 -28 c-79 -65 -145 -191 -161 -305 -17 -125 39 -285 133 -382 l54 -54 -12 -41 c-14 -49 -40 -87 -47 -69 -2 7 -12 21 -21 31 -23 25 -308 146 -323 136 -7 -4 -9 -3 -6 3 4 6 -50 35 -126 68 -209 90 -242 102 -275 100 -18 -2 -32 0 -32 4 0 3 5 35 10 70 9 63 2 151 -19 234 -8 32 -7 36 5 26 11 -9 42 2 152 56 75 37 173 85 217 105 259 121 398 193 402 211 10 35 21 19 52 -73z m-1557 71 c29 -6 90 -29 136 -50 188 -90 306 -279 305 -489 -1 -315 -262 -555 -583 -537 -264 14 -473 189 -527 440 -71 336 186 641 544 646 40 1 96 -4 125 -10z m1997 -120 c131 -30 278 -151 320 -264 66 -176 25 -364 -107 -487 -104 -98 -268 -140 -412 -107 -133 30 -248 123 -309 249 -34 72 -36 80 -36 180 0 98 2 110 34 178 55 118 182 221 308 251 52 12 149 13 202 0z m-1281 -397 c5 -102 -1 -142 -24 -142 -13 0 -62 21 -171 72 -11 6 -25 8 -30 5 -5 -3 -10 16 -12 44 -2 40 1 50 16 55 10 3 36 13 58 23 131 60 129 60 144 46 8 -8 15 -46 19 -103z m-170 -122 c34 -16 65 -30 67 -30 3 0 119 -50 258 -111 138 -61 410 -178 602 -261 649 -276 616 -261 609 -278 -31 -69 -46 -134 -48 -202 0 -43 -2 -78 -3 -78 -1 0 -23 11 -50 24 -26 13 -169 77 -318 141 -148 64 -283 123 -300 130 -124 56 -672 296 -810 355 -93 41 -171 74 -172 75 -2 1 15 35 36 77 21 41 44 101 51 132 6 31 13 56 14 56 1 0 30 -13 64 -30z m2207 -385 c201 -51 348 -195 399 -391 74 -284 -115 -589 -403 -650 -194 -41 -378 11 -512 145 -184 184 -213 469 -69 681 120 177 371 269 585 215z"/>
<path d="M4230 5020 c-91 -23 -188 -105 -232 -197 -34 -72 -33 -206 3 -283 36 -75 96 -140 161 -173 180 -91 396 -24 483 149 27 54 30 68 30 159 0 87 -3 107 -26 155 -34 71 -100 136 -169 168 -60 28 -184 39 -250 22z m228 -81 c106 -53 162 -145 162 -267 0 -110 -56 -202 -155 -255 -33 -18 -57 -22 -135 -22 -85 0 -100 3 -141 27 -227 134 -203 446 41 534 19 7 65 13 101 14 54 0 77 -5 127 -31z"/>
</g>
</svg>
